<svg xmlns="http://www.w3.org/2000/svg" xmlns:xlink="http://www.w3.org/1999/xlink" version="1.1" x="0px" y="0px" viewBox="0 0 100 100" enable-background="new 0 0 100 100" xml:space="preserve"><polygon style="fill: #4caf50; stroke: #4caf50; stroke-width: 1" points="13.9,72.5 15.4,75 16.8,72.5 19.7,72.5 21.1,75 19.7,77.5 22.6,77.5 24,80 25.5,77.5 28.3,77.5 26.9,75 28.3,72.5   31.2,72.5 32.7,75 34.1,72.5 37,72.5 38.5,75 37,77.5 39.9,77.5 41.3,80 39.9,82.5 37,82.5 38.5,85 37,87.5 39.9,87.5 41.3,90   42.8,87.5 45.7,87.5 47.1,90 45.7,92.5 48.6,92.5 50,95 51.4,92.5 54.3,92.5 52.9,90 54.3,87.5 57.2,87.5 58.7,90 60.1,87.5   63,87.5 61.5,85 63,82.5 60.1,82.5 58.7,80 60.1,77.5 63,77.5 61.5,75 63,72.5 65.9,72.5 67.3,75 68.8,72.5 71.7,72.5 73.1,75   71.7,77.5 74.5,77.5 76,80 77.4,77.5 80.3,77.5 78.9,75 80.3,72.5 83.2,72.5 84.6,75 86.1,72.5 89,72.5 87.5,70 89,67.5 86.1,67.5   84.6,65 86.1,62.5 89,62.5 87.5,60 89,57.5 86.1,57.5 84.6,55 83.2,57.5 80.3,57.5 78.9,55 80.3,52.5 77.4,52.5 76,50 77.4,47.5   80.3,47.5 78.9,45 80.3,42.5 83.2,42.5 84.6,45 86.1,42.5 89,42.5 87.5,40 89,37.5 86.1,37.5 84.6,35 86.1,32.5 89,32.5 87.5,30   89,27.5 86.1,27.5 84.6,25 83.2,27.5 80.3,27.5 78.9,25 80.3,22.5 77.4,22.5 76,20 74.5,22.5 71.7,22.5 73.1,25 71.7,27.5   68.8,27.5 67.3,25 65.9,27.5 63,27.5 61.5,25 63,22.5 60.1,22.5 58.7,20 60.1,17.5 63,17.5 61.5,15 63,12.5 60.1,12.5 58.7,10   57.2,12.5 54.3,12.5 52.9,10 54.3,7.5 51.4,7.5 50,5 48.6,7.5 45.7,7.5 47.1,10 45.7,12.5 42.8,12.5 41.3,10 39.9,12.5 37,12.5   38.5,15 37,17.5 39.9,17.5 41.3,20 39.9,22.5 37,22.5 38.5,25 37,27.5 34.1,27.5 32.7,25 31.2,27.5 28.3,27.5 26.9,25 28.3,22.5   25.5,22.5 24,20 22.6,22.5 19.7,22.5 21.1,25 19.7,27.5 16.8,27.5 15.4,25 13.9,27.5 11,27.5 12.5,30 11,32.5 13.9,32.5 15.4,35   13.9,37.5 11,37.5 12.5,40 11,42.5 13.9,42.5 15.4,45 16.8,42.5 19.7,42.5 21.1,45 19.7,47.5 22.6,47.5 24,50 22.6,52.5 19.7,52.5   21.1,55 19.7,57.5 16.8,57.5 15.4,55 13.9,57.5 11,57.5 12.5,60 11,62.5 13.9,62.5 15.4,65 13.9,67.5 11,67.5 12.5,70 11,72.5 "/></svg>
